G04 #@! TF.FileFunction,Copper,L1,Top,Signal*
%FSLAX46Y46*%
G04 Gerber Fmt 4.6, Leading zero omitted, Abs format (unit mm)*
G04 Created by KiCad (PCBNEW 4.0.4-stable) date 01/29/17 13:46:40*
%MOMM*%
%LPD*%
G01*
G04 APERTURE LIST*
%ADD10C,0.100000*%
%ADD11R,1.600000X2.000000*%
%ADD12R,1.200000X1.200000*%
%ADD13R,1.300000X1.500000*%
%ADD14R,1.550000X0.600000*%
%ADD15C,0.685800*%
%ADD16C,0.254000*%
G04 APERTURE END LIST*
D10*
D11*
X156210000Y-111030000D03*
X156210000Y-115030000D03*
D12*
X140335000Y-110025000D03*
X140335000Y-112225000D03*
D13*
X156210000Y-95805000D03*
X156210000Y-98505000D03*
X156210000Y-102790000D03*
X156210000Y-105490000D03*
X140335000Y-102155000D03*
X140335000Y-104855000D03*
D14*
X145890000Y-101600000D03*
X145890000Y-102870000D03*
X145890000Y-104140000D03*
X145890000Y-105410000D03*
X151290000Y-105410000D03*
X151290000Y-104140000D03*
X151290000Y-102870000D03*
X151290000Y-101600000D03*
D15*
X148590000Y-110490000D03*
X143764000Y-107188000D03*
X151130000Y-99695000D03*
D16*
X145890000Y-105410000D02*
X144526000Y-105410000D01*
X143764000Y-106172000D02*
X143764000Y-107188000D01*
X144526000Y-105410000D02*
X143764000Y-106172000D01*
X151290000Y-101600000D02*
X151290000Y-99855000D01*
X151290000Y-99855000D02*
X151130000Y-99695000D01*
X151290000Y-101600000D02*
X153670000Y-101600000D01*
X154940000Y-97075000D02*
X156210000Y-95805000D01*
X154940000Y-100330000D02*
X154940000Y-97075000D01*
X153670000Y-101600000D02*
X154940000Y-100330000D01*
X145890000Y-102870000D02*
X147574000Y-102870000D01*
X148844000Y-104140000D02*
X151290000Y-104140000D01*
X147574000Y-102870000D02*
X148844000Y-104140000D01*
X151290000Y-104140000D02*
X154860000Y-104140000D01*
X154860000Y-104140000D02*
X156210000Y-105490000D01*
X156210000Y-105490000D02*
X156210000Y-111030000D01*
X140335000Y-110025000D02*
X140335000Y-104855000D01*
X151290000Y-102870000D02*
X156130000Y-102870000D01*
X156130000Y-102870000D02*
X156210000Y-102790000D01*
X156210000Y-98505000D02*
X156210000Y-102790000D01*
X145890000Y-104140000D02*
X142320000Y-104140000D01*
X142320000Y-104140000D02*
X140335000Y-102155000D01*
G36*
X166930000Y-121845000D02*
X130250000Y-121845000D01*
X130250000Y-115315750D01*
X154775000Y-115315750D01*
X154775000Y-116156309D01*
X154871673Y-116389698D01*
X155050301Y-116568327D01*
X155283690Y-116665000D01*
X155924250Y-116665000D01*
X156083000Y-116506250D01*
X156083000Y-115157000D01*
X156337000Y-115157000D01*
X156337000Y-116506250D01*
X156495750Y-116665000D01*
X157136310Y-116665000D01*
X157369699Y-116568327D01*
X157548327Y-116389698D01*
X157645000Y-116156309D01*
X157645000Y-115315750D01*
X157486250Y-115157000D01*
X156337000Y-115157000D01*
X156083000Y-115157000D01*
X154933750Y-115157000D01*
X154775000Y-115315750D01*
X130250000Y-115315750D01*
X130250000Y-113903691D01*
X154775000Y-113903691D01*
X154775000Y-114744250D01*
X154933750Y-114903000D01*
X156083000Y-114903000D01*
X156083000Y-113553750D01*
X156337000Y-113553750D01*
X156337000Y-114903000D01*
X157486250Y-114903000D01*
X157645000Y-114744250D01*
X157645000Y-113903691D01*
X157548327Y-113670302D01*
X157369699Y-113491673D01*
X157136310Y-113395000D01*
X156495750Y-113395000D01*
X156337000Y-113553750D01*
X156083000Y-113553750D01*
X155924250Y-113395000D01*
X155283690Y-113395000D01*
X155050301Y-113491673D01*
X154871673Y-113670302D01*
X154775000Y-113903691D01*
X130250000Y-113903691D01*
X130250000Y-112510750D01*
X139100000Y-112510750D01*
X139100000Y-112951309D01*
X139196673Y-113184698D01*
X139375301Y-113363327D01*
X139608690Y-113460000D01*
X140049250Y-113460000D01*
X140208000Y-113301250D01*
X140208000Y-112352000D01*
X140462000Y-112352000D01*
X140462000Y-113301250D01*
X140620750Y-113460000D01*
X141061310Y-113460000D01*
X141294699Y-113363327D01*
X141473327Y-113184698D01*
X141570000Y-112951309D01*
X141570000Y-112510750D01*
X141411250Y-112352000D01*
X140462000Y-112352000D01*
X140208000Y-112352000D01*
X139258750Y-112352000D01*
X139100000Y-112510750D01*
X130250000Y-112510750D01*
X130250000Y-101405000D01*
X139037560Y-101405000D01*
X139037560Y-102905000D01*
X139081838Y-103140317D01*
X139220910Y-103356441D01*
X139433110Y-103501431D01*
X139446197Y-103504081D01*
X139233559Y-103640910D01*
X139088569Y-103853110D01*
X139037560Y-104105000D01*
X139037560Y-105605000D01*
X139081838Y-105840317D01*
X139220910Y-106056441D01*
X139433110Y-106201431D01*
X139573000Y-106229759D01*
X139573000Y-108808042D01*
X139499683Y-108821838D01*
X139283559Y-108960910D01*
X139138569Y-109173110D01*
X139087560Y-109425000D01*
X139087560Y-110625000D01*
X139131838Y-110860317D01*
X139270910Y-111076441D01*
X139339006Y-111122969D01*
X139196673Y-111265302D01*
X139100000Y-111498691D01*
X139100000Y-111939250D01*
X139258750Y-112098000D01*
X140208000Y-112098000D01*
X140208000Y-112078000D01*
X140462000Y-112078000D01*
X140462000Y-112098000D01*
X141411250Y-112098000D01*
X141570000Y-111939250D01*
X141570000Y-111498691D01*
X141473327Y-111265302D01*
X141332090Y-111124064D01*
X141386441Y-111089090D01*
X141531431Y-110876890D01*
X141582440Y-110625000D01*
X141582440Y-109425000D01*
X141538162Y-109189683D01*
X141399090Y-108973559D01*
X141186890Y-108828569D01*
X141097000Y-108810366D01*
X141097000Y-106231366D01*
X141220317Y-106208162D01*
X141436441Y-106069090D01*
X141581431Y-105856890D01*
X141632440Y-105605000D01*
X141632440Y-104530070D01*
X141781185Y-104678815D01*
X142028395Y-104843996D01*
X142320000Y-104902000D01*
X143956369Y-104902000D01*
X143225185Y-105633185D01*
X143060004Y-105880395D01*
X143002000Y-106172000D01*
X143002000Y-106566917D01*
X142935460Y-106633341D01*
X142786270Y-106992630D01*
X142785931Y-107381663D01*
X142934493Y-107741212D01*
X143209341Y-108016540D01*
X143568630Y-108165730D01*
X143957663Y-108166069D01*
X144317212Y-108017507D01*
X144592540Y-107742659D01*
X144741730Y-107383370D01*
X144742069Y-106994337D01*
X144593507Y-106634788D01*
X144526000Y-106567163D01*
X144526000Y-106487630D01*
X144770487Y-106243144D01*
X144863110Y-106306431D01*
X145115000Y-106357440D01*
X146665000Y-106357440D01*
X146900317Y-106313162D01*
X147116441Y-106174090D01*
X147261431Y-105961890D01*
X147312440Y-105710000D01*
X147312440Y-105695750D01*
X149880000Y-105695750D01*
X149880000Y-105836310D01*
X149976673Y-106069699D01*
X150155302Y-106248327D01*
X150388691Y-106345000D01*
X151004250Y-106345000D01*
X151163000Y-106186250D01*
X151163000Y-105537000D01*
X151417000Y-105537000D01*
X151417000Y-106186250D01*
X151575750Y-106345000D01*
X152191309Y-106345000D01*
X152424698Y-106248327D01*
X152603327Y-106069699D01*
X152700000Y-105836310D01*
X152700000Y-105695750D01*
X152541250Y-105537000D01*
X151417000Y-105537000D01*
X151163000Y-105537000D01*
X150038750Y-105537000D01*
X149880000Y-105695750D01*
X147312440Y-105695750D01*
X147312440Y-105110000D01*
X147268162Y-104874683D01*
X147204322Y-104775472D01*
X147261431Y-104691890D01*
X147312440Y-104440000D01*
X147312440Y-103840000D01*
X147276763Y-103650393D01*
X148305184Y-104678815D01*
X148465604Y-104786004D01*
X148552395Y-104843996D01*
X148844000Y-104902000D01*
X149913837Y-104902000D01*
X149880000Y-104983690D01*
X149880000Y-105124250D01*
X150038750Y-105283000D01*
X151163000Y-105283000D01*
X151163000Y-105263000D01*
X151417000Y-105263000D01*
X151417000Y-105283000D01*
X152541250Y-105283000D01*
X152700000Y-105124250D01*
X152700000Y-104983690D01*
X152666163Y-104902000D01*
X154544370Y-104902000D01*
X154912560Y-105270190D01*
X154912560Y-106240000D01*
X154956838Y-106475317D01*
X155095910Y-106691441D01*
X155308110Y-106836431D01*
X155448000Y-106864759D01*
X155448000Y-109382560D01*
X155410000Y-109382560D01*
X155174683Y-109426838D01*
X154958559Y-109565910D01*
X154813569Y-109778110D01*
X154762560Y-110030000D01*
X154762560Y-112030000D01*
X154806838Y-112265317D01*
X154945910Y-112481441D01*
X155158110Y-112626431D01*
X155410000Y-112677440D01*
X157010000Y-112677440D01*
X157245317Y-112633162D01*
X157461441Y-112494090D01*
X157606431Y-112281890D01*
X157657440Y-112030000D01*
X157657440Y-110030000D01*
X157613162Y-109794683D01*
X157474090Y-109578559D01*
X157261890Y-109433569D01*
X157010000Y-109382560D01*
X156972000Y-109382560D01*
X156972000Y-106866366D01*
X157095317Y-106843162D01*
X157311441Y-106704090D01*
X157456431Y-106491890D01*
X157507440Y-106240000D01*
X157507440Y-104740000D01*
X157463162Y-104504683D01*
X157324090Y-104288559D01*
X157111890Y-104143569D01*
X157098803Y-104140919D01*
X157311441Y-104004090D01*
X157456431Y-103791890D01*
X157507440Y-103540000D01*
X157507440Y-102040000D01*
X157463162Y-101804683D01*
X157324090Y-101588559D01*
X157111890Y-101443569D01*
X156972000Y-101415241D01*
X156972000Y-99881366D01*
X157095317Y-99858162D01*
X157311441Y-99719090D01*
X157456431Y-99506890D01*
X157507440Y-99255000D01*
X157507440Y-97755000D01*
X157463162Y-97519683D01*
X157324090Y-97303559D01*
X157111890Y-97158569D01*
X157098803Y-97155919D01*
X157311441Y-97019090D01*
X157456431Y-96806890D01*
X157507440Y-96555000D01*
X157507440Y-95055000D01*
X157463162Y-94819683D01*
X157324090Y-94603559D01*
X157111890Y-94458569D01*
X156860000Y-94407560D01*
X155560000Y-94407560D01*
X155324683Y-94451838D01*
X155108559Y-94590910D01*
X154963569Y-94803110D01*
X154912560Y-95055000D01*
X154912560Y-96024810D01*
X154401185Y-96536185D01*
X154236004Y-96783395D01*
X154178000Y-97075000D01*
X154178000Y-100014369D01*
X153354370Y-100838000D01*
X152513636Y-100838000D01*
X152316890Y-100703569D01*
X152065000Y-100652560D01*
X152052000Y-100652560D01*
X152052000Y-100024583D01*
X152107730Y-99890370D01*
X152108069Y-99501337D01*
X151959507Y-99141788D01*
X151684659Y-98866460D01*
X151325370Y-98717270D01*
X150936337Y-98716931D01*
X150576788Y-98865493D01*
X150301460Y-99140341D01*
X150152270Y-99499630D01*
X150151931Y-99888663D01*
X150300493Y-100248212D01*
X150528000Y-100476116D01*
X150528000Y-100652560D01*
X150515000Y-100652560D01*
X150279683Y-100696838D01*
X150063559Y-100835910D01*
X149918569Y-101048110D01*
X149867560Y-101300000D01*
X149867560Y-101900000D01*
X149911838Y-102135317D01*
X149975678Y-102234528D01*
X149918569Y-102318110D01*
X149867560Y-102570000D01*
X149867560Y-103170000D01*
X149906698Y-103378000D01*
X149159631Y-103378000D01*
X148112815Y-102331185D01*
X148005829Y-102259699D01*
X147865605Y-102166004D01*
X147574000Y-102108000D01*
X147266163Y-102108000D01*
X147300000Y-102026310D01*
X147300000Y-101885750D01*
X147141250Y-101727000D01*
X146017000Y-101727000D01*
X146017000Y-101747000D01*
X145763000Y-101747000D01*
X145763000Y-101727000D01*
X144638750Y-101727000D01*
X144480000Y-101885750D01*
X144480000Y-102026310D01*
X144569806Y-102243122D01*
X144518569Y-102318110D01*
X144467560Y-102570000D01*
X144467560Y-103170000D01*
X144506698Y-103378000D01*
X142635630Y-103378000D01*
X141632440Y-102374810D01*
X141632440Y-101405000D01*
X141588916Y-101173690D01*
X144480000Y-101173690D01*
X144480000Y-101314250D01*
X144638750Y-101473000D01*
X145763000Y-101473000D01*
X145763000Y-100823750D01*
X146017000Y-100823750D01*
X146017000Y-101473000D01*
X147141250Y-101473000D01*
X147300000Y-101314250D01*
X147300000Y-101173690D01*
X147203327Y-100940301D01*
X147024698Y-100761673D01*
X146791309Y-100665000D01*
X146175750Y-100665000D01*
X146017000Y-100823750D01*
X145763000Y-100823750D01*
X145604250Y-100665000D01*
X144988691Y-100665000D01*
X144755302Y-100761673D01*
X144576673Y-100940301D01*
X144480000Y-101173690D01*
X141588916Y-101173690D01*
X141588162Y-101169683D01*
X141449090Y-100953559D01*
X141236890Y-100808569D01*
X140985000Y-100757560D01*
X139685000Y-100757560D01*
X139449683Y-100801838D01*
X139233559Y-100940910D01*
X139088569Y-101153110D01*
X139037560Y-101405000D01*
X130250000Y-101405000D01*
X130250000Y-89610000D01*
X166930000Y-89610000D01*
X166930000Y-121845000D01*
X166930000Y-121845000D01*
G37*
X166930000Y-121845000D02*
X130250000Y-121845000D01*
X130250000Y-115315750D01*
X154775000Y-115315750D01*
X154775000Y-116156309D01*
X154871673Y-116389698D01*
X155050301Y-116568327D01*
X155283690Y-116665000D01*
X155924250Y-116665000D01*
X156083000Y-116506250D01*
X156083000Y-115157000D01*
X156337000Y-115157000D01*
X156337000Y-116506250D01*
X156495750Y-116665000D01*
X157136310Y-116665000D01*
X157369699Y-116568327D01*
X157548327Y-116389698D01*
X157645000Y-116156309D01*
X157645000Y-115315750D01*
X157486250Y-115157000D01*
X156337000Y-115157000D01*
X156083000Y-115157000D01*
X154933750Y-115157000D01*
X154775000Y-115315750D01*
X130250000Y-115315750D01*
X130250000Y-113903691D01*
X154775000Y-113903691D01*
X154775000Y-114744250D01*
X154933750Y-114903000D01*
X156083000Y-114903000D01*
X156083000Y-113553750D01*
X156337000Y-113553750D01*
X156337000Y-114903000D01*
X157486250Y-114903000D01*
X157645000Y-114744250D01*
X157645000Y-113903691D01*
X157548327Y-113670302D01*
X157369699Y-113491673D01*
X157136310Y-113395000D01*
X156495750Y-113395000D01*
X156337000Y-113553750D01*
X156083000Y-113553750D01*
X155924250Y-113395000D01*
X155283690Y-113395000D01*
X155050301Y-113491673D01*
X154871673Y-113670302D01*
X154775000Y-113903691D01*
X130250000Y-113903691D01*
X130250000Y-112510750D01*
X139100000Y-112510750D01*
X139100000Y-112951309D01*
X139196673Y-113184698D01*
X139375301Y-113363327D01*
X139608690Y-113460000D01*
X140049250Y-113460000D01*
X140208000Y-113301250D01*
X140208000Y-112352000D01*
X140462000Y-112352000D01*
X140462000Y-113301250D01*
X140620750Y-113460000D01*
X141061310Y-113460000D01*
X141294699Y-113363327D01*
X141473327Y-113184698D01*
X141570000Y-112951309D01*
X141570000Y-112510750D01*
X141411250Y-112352000D01*
X140462000Y-112352000D01*
X140208000Y-112352000D01*
X139258750Y-112352000D01*
X139100000Y-112510750D01*
X130250000Y-112510750D01*
X130250000Y-101405000D01*
X139037560Y-101405000D01*
X139037560Y-102905000D01*
X139081838Y-103140317D01*
X139220910Y-103356441D01*
X139433110Y-103501431D01*
X139446197Y-103504081D01*
X139233559Y-103640910D01*
X139088569Y-103853110D01*
X139037560Y-104105000D01*
X139037560Y-105605000D01*
X139081838Y-105840317D01*
X139220910Y-106056441D01*
X139433110Y-106201431D01*
X139573000Y-106229759D01*
X139573000Y-108808042D01*
X139499683Y-108821838D01*
X139283559Y-108960910D01*
X139138569Y-109173110D01*
X139087560Y-109425000D01*
X139087560Y-110625000D01*
X139131838Y-110860317D01*
X139270910Y-111076441D01*
X139339006Y-111122969D01*
X139196673Y-111265302D01*
X139100000Y-111498691D01*
X139100000Y-111939250D01*
X139258750Y-112098000D01*
X140208000Y-112098000D01*
X140208000Y-112078000D01*
X140462000Y-112078000D01*
X140462000Y-112098000D01*
X141411250Y-112098000D01*
X141570000Y-111939250D01*
X141570000Y-111498691D01*
X141473327Y-111265302D01*
X141332090Y-111124064D01*
X141386441Y-111089090D01*
X141531431Y-110876890D01*
X141582440Y-110625000D01*
X141582440Y-109425000D01*
X141538162Y-109189683D01*
X141399090Y-108973559D01*
X141186890Y-108828569D01*
X141097000Y-108810366D01*
X141097000Y-106231366D01*
X141220317Y-106208162D01*
X141436441Y-106069090D01*
X141581431Y-105856890D01*
X141632440Y-105605000D01*
X141632440Y-104530070D01*
X141781185Y-104678815D01*
X142028395Y-104843996D01*
X142320000Y-104902000D01*
X143956369Y-104902000D01*
X143225185Y-105633185D01*
X143060004Y-105880395D01*
X143002000Y-106172000D01*
X143002000Y-106566917D01*
X142935460Y-106633341D01*
X142786270Y-106992630D01*
X142785931Y-107381663D01*
X142934493Y-107741212D01*
X143209341Y-108016540D01*
X143568630Y-108165730D01*
X143957663Y-108166069D01*
X144317212Y-108017507D01*
X144592540Y-107742659D01*
X144741730Y-107383370D01*
X144742069Y-106994337D01*
X144593507Y-106634788D01*
X144526000Y-106567163D01*
X144526000Y-106487630D01*
X144770487Y-106243144D01*
X144863110Y-106306431D01*
X145115000Y-106357440D01*
X146665000Y-106357440D01*
X146900317Y-106313162D01*
X147116441Y-106174090D01*
X147261431Y-105961890D01*
X147312440Y-105710000D01*
X147312440Y-105695750D01*
X149880000Y-105695750D01*
X149880000Y-105836310D01*
X149976673Y-106069699D01*
X150155302Y-106248327D01*
X150388691Y-106345000D01*
X151004250Y-106345000D01*
X151163000Y-106186250D01*
X151163000Y-105537000D01*
X151417000Y-105537000D01*
X151417000Y-106186250D01*
X151575750Y-106345000D01*
X152191309Y-106345000D01*
X152424698Y-106248327D01*
X152603327Y-106069699D01*
X152700000Y-105836310D01*
X152700000Y-105695750D01*
X152541250Y-105537000D01*
X151417000Y-105537000D01*
X151163000Y-105537000D01*
X150038750Y-105537000D01*
X149880000Y-105695750D01*
X147312440Y-105695750D01*
X147312440Y-105110000D01*
X147268162Y-104874683D01*
X147204322Y-104775472D01*
X147261431Y-104691890D01*
X147312440Y-104440000D01*
X147312440Y-103840000D01*
X147276763Y-103650393D01*
X148305184Y-104678815D01*
X148465604Y-104786004D01*
X148552395Y-104843996D01*
X148844000Y-104902000D01*
X149913837Y-104902000D01*
X149880000Y-104983690D01*
X149880000Y-105124250D01*
X150038750Y-105283000D01*
X151163000Y-105283000D01*
X151163000Y-105263000D01*
X151417000Y-105263000D01*
X151417000Y-105283000D01*
X152541250Y-105283000D01*
X152700000Y-105124250D01*
X152700000Y-104983690D01*
X152666163Y-104902000D01*
X154544370Y-104902000D01*
X154912560Y-105270190D01*
X154912560Y-106240000D01*
X154956838Y-106475317D01*
X155095910Y-106691441D01*
X155308110Y-106836431D01*
X155448000Y-106864759D01*
X155448000Y-109382560D01*
X155410000Y-109382560D01*
X155174683Y-109426838D01*
X154958559Y-109565910D01*
X154813569Y-109778110D01*
X154762560Y-110030000D01*
X154762560Y-112030000D01*
X154806838Y-112265317D01*
X154945910Y-112481441D01*
X155158110Y-112626431D01*
X155410000Y-112677440D01*
X157010000Y-112677440D01*
X157245317Y-112633162D01*
X157461441Y-112494090D01*
X157606431Y-112281890D01*
X157657440Y-112030000D01*
X157657440Y-110030000D01*
X157613162Y-109794683D01*
X157474090Y-109578559D01*
X157261890Y-109433569D01*
X157010000Y-109382560D01*
X156972000Y-109382560D01*
X156972000Y-106866366D01*
X157095317Y-106843162D01*
X157311441Y-106704090D01*
X157456431Y-106491890D01*
X157507440Y-106240000D01*
X157507440Y-104740000D01*
X157463162Y-104504683D01*
X157324090Y-104288559D01*
X157111890Y-104143569D01*
X157098803Y-104140919D01*
X157311441Y-104004090D01*
X157456431Y-103791890D01*
X157507440Y-103540000D01*
X157507440Y-102040000D01*
X157463162Y-101804683D01*
X157324090Y-101588559D01*
X157111890Y-101443569D01*
X156972000Y-101415241D01*
X156972000Y-99881366D01*
X157095317Y-99858162D01*
X157311441Y-99719090D01*
X157456431Y-99506890D01*
X157507440Y-99255000D01*
X157507440Y-97755000D01*
X157463162Y-97519683D01*
X157324090Y-97303559D01*
X157111890Y-97158569D01*
X157098803Y-97155919D01*
X157311441Y-97019090D01*
X157456431Y-96806890D01*
X157507440Y-96555000D01*
X157507440Y-95055000D01*
X157463162Y-94819683D01*
X157324090Y-94603559D01*
X157111890Y-94458569D01*
X156860000Y-94407560D01*
X155560000Y-94407560D01*
X155324683Y-94451838D01*
X155108559Y-94590910D01*
X154963569Y-94803110D01*
X154912560Y-95055000D01*
X154912560Y-96024810D01*
X154401185Y-96536185D01*
X154236004Y-96783395D01*
X154178000Y-97075000D01*
X154178000Y-100014369D01*
X153354370Y-100838000D01*
X152513636Y-100838000D01*
X152316890Y-100703569D01*
X152065000Y-100652560D01*
X152052000Y-100652560D01*
X152052000Y-100024583D01*
X152107730Y-99890370D01*
X152108069Y-99501337D01*
X151959507Y-99141788D01*
X151684659Y-98866460D01*
X151325370Y-98717270D01*
X150936337Y-98716931D01*
X150576788Y-98865493D01*
X150301460Y-99140341D01*
X150152270Y-99499630D01*
X150151931Y-99888663D01*
X150300493Y-100248212D01*
X150528000Y-100476116D01*
X150528000Y-100652560D01*
X150515000Y-100652560D01*
X150279683Y-100696838D01*
X150063559Y-100835910D01*
X149918569Y-101048110D01*
X149867560Y-101300000D01*
X149867560Y-101900000D01*
X149911838Y-102135317D01*
X149975678Y-102234528D01*
X149918569Y-102318110D01*
X149867560Y-102570000D01*
X149867560Y-103170000D01*
X149906698Y-103378000D01*
X149159631Y-103378000D01*
X148112815Y-102331185D01*
X148005829Y-102259699D01*
X147865605Y-102166004D01*
X147574000Y-102108000D01*
X147266163Y-102108000D01*
X147300000Y-102026310D01*
X147300000Y-101885750D01*
X147141250Y-101727000D01*
X146017000Y-101727000D01*
X146017000Y-101747000D01*
X145763000Y-101747000D01*
X145763000Y-101727000D01*
X144638750Y-101727000D01*
X144480000Y-101885750D01*
X144480000Y-102026310D01*
X144569806Y-102243122D01*
X144518569Y-102318110D01*
X144467560Y-102570000D01*
X144467560Y-103170000D01*
X144506698Y-103378000D01*
X142635630Y-103378000D01*
X141632440Y-102374810D01*
X141632440Y-101405000D01*
X141588916Y-101173690D01*
X144480000Y-101173690D01*
X144480000Y-101314250D01*
X144638750Y-101473000D01*
X145763000Y-101473000D01*
X145763000Y-100823750D01*
X146017000Y-100823750D01*
X146017000Y-101473000D01*
X147141250Y-101473000D01*
X147300000Y-101314250D01*
X147300000Y-101173690D01*
X147203327Y-100940301D01*
X147024698Y-100761673D01*
X146791309Y-100665000D01*
X146175750Y-100665000D01*
X146017000Y-100823750D01*
X145763000Y-100823750D01*
X145604250Y-100665000D01*
X144988691Y-100665000D01*
X144755302Y-100761673D01*
X144576673Y-100940301D01*
X144480000Y-101173690D01*
X141588916Y-101173690D01*
X141588162Y-101169683D01*
X141449090Y-100953559D01*
X141236890Y-100808569D01*
X140985000Y-100757560D01*
X139685000Y-100757560D01*
X139449683Y-100801838D01*
X139233559Y-100940910D01*
X139088569Y-101153110D01*
X139037560Y-101405000D01*
X130250000Y-101405000D01*
X130250000Y-89610000D01*
X166930000Y-89610000D01*
X166930000Y-121845000D01*
M02*
