G04 #@! TF.FileFunction,Copper,L2,Bot,Signal*
%FSLAX46Y46*%
G04 Gerber Fmt 4.6, Leading zero omitted, Abs format (unit mm)*
G04 Created by KiCad (PCBNEW 4.0.4-stable) date 01/29/17 13:46:40*
%MOMM*%
%LPD*%
G01*
G04 APERTURE LIST*
%ADD10C,0.100000*%
%ADD11R,4.000000X4.000000*%
%ADD12R,5.500000X5.500000*%
%ADD13C,0.685800*%
%ADD14C,0.254000*%
G04 APERTURE END LIST*
D10*
D11*
X148590000Y-106680000D03*
D12*
X135790000Y-106680000D03*
X161390000Y-106680000D03*
D13*
X148590000Y-110490000D03*
X143764000Y-107188000D03*
X151130000Y-99695000D03*
D14*
X148590000Y-106680000D02*
X148590000Y-110490000D01*
G36*
X166930000Y-121845000D02*
X130250000Y-121845000D01*
X130250000Y-106965750D01*
X132405000Y-106965750D01*
X132405000Y-109556310D01*
X132501673Y-109789699D01*
X132680302Y-109968327D01*
X132913691Y-110065000D01*
X135504250Y-110065000D01*
X135663000Y-109906250D01*
X135663000Y-106807000D01*
X135917000Y-106807000D01*
X135917000Y-109906250D01*
X136075750Y-110065000D01*
X138666309Y-110065000D01*
X138899698Y-109968327D01*
X139078327Y-109789699D01*
X139175000Y-109556310D01*
X139175000Y-106965750D01*
X139016250Y-106807000D01*
X135917000Y-106807000D01*
X135663000Y-106807000D01*
X132563750Y-106807000D01*
X132405000Y-106965750D01*
X130250000Y-106965750D01*
X130250000Y-103803690D01*
X132405000Y-103803690D01*
X132405000Y-106394250D01*
X132563750Y-106553000D01*
X135663000Y-106553000D01*
X135663000Y-103453750D01*
X135917000Y-103453750D01*
X135917000Y-106553000D01*
X139016250Y-106553000D01*
X139175000Y-106394250D01*
X139175000Y-104680000D01*
X145942560Y-104680000D01*
X145942560Y-108680000D01*
X145986838Y-108915317D01*
X146125910Y-109131441D01*
X146338110Y-109276431D01*
X146590000Y-109327440D01*
X147828000Y-109327440D01*
X147828000Y-109868917D01*
X147761460Y-109935341D01*
X147612270Y-110294630D01*
X147611931Y-110683663D01*
X147760493Y-111043212D01*
X148035341Y-111318540D01*
X148394630Y-111467730D01*
X148783663Y-111468069D01*
X149143212Y-111319507D01*
X149418540Y-111044659D01*
X149567730Y-110685370D01*
X149568069Y-110296337D01*
X149419507Y-109936788D01*
X149352000Y-109869163D01*
X149352000Y-109327440D01*
X150590000Y-109327440D01*
X150825317Y-109283162D01*
X151041441Y-109144090D01*
X151186431Y-108931890D01*
X151237440Y-108680000D01*
X151237440Y-106965750D01*
X158005000Y-106965750D01*
X158005000Y-109556310D01*
X158101673Y-109789699D01*
X158280302Y-109968327D01*
X158513691Y-110065000D01*
X161104250Y-110065000D01*
X161263000Y-109906250D01*
X161263000Y-106807000D01*
X161517000Y-106807000D01*
X161517000Y-109906250D01*
X161675750Y-110065000D01*
X164266309Y-110065000D01*
X164499698Y-109968327D01*
X164678327Y-109789699D01*
X164775000Y-109556310D01*
X164775000Y-106965750D01*
X164616250Y-106807000D01*
X161517000Y-106807000D01*
X161263000Y-106807000D01*
X158163750Y-106807000D01*
X158005000Y-106965750D01*
X151237440Y-106965750D01*
X151237440Y-104680000D01*
X151193162Y-104444683D01*
X151054090Y-104228559D01*
X150841890Y-104083569D01*
X150590000Y-104032560D01*
X146590000Y-104032560D01*
X146354683Y-104076838D01*
X146138559Y-104215910D01*
X145993569Y-104428110D01*
X145942560Y-104680000D01*
X139175000Y-104680000D01*
X139175000Y-103803690D01*
X158005000Y-103803690D01*
X158005000Y-106394250D01*
X158163750Y-106553000D01*
X161263000Y-106553000D01*
X161263000Y-103453750D01*
X161517000Y-103453750D01*
X161517000Y-106553000D01*
X164616250Y-106553000D01*
X164775000Y-106394250D01*
X164775000Y-103803690D01*
X164678327Y-103570301D01*
X164499698Y-103391673D01*
X164266309Y-103295000D01*
X161675750Y-103295000D01*
X161517000Y-103453750D01*
X161263000Y-103453750D01*
X161104250Y-103295000D01*
X158513691Y-103295000D01*
X158280302Y-103391673D01*
X158101673Y-103570301D01*
X158005000Y-103803690D01*
X139175000Y-103803690D01*
X139078327Y-103570301D01*
X138899698Y-103391673D01*
X138666309Y-103295000D01*
X136075750Y-103295000D01*
X135917000Y-103453750D01*
X135663000Y-103453750D01*
X135504250Y-103295000D01*
X132913691Y-103295000D01*
X132680302Y-103391673D01*
X132501673Y-103570301D01*
X132405000Y-103803690D01*
X130250000Y-103803690D01*
X130250000Y-89610000D01*
X166930000Y-89610000D01*
X166930000Y-121845000D01*
X166930000Y-121845000D01*
G37*
X166930000Y-121845000D02*
X130250000Y-121845000D01*
X130250000Y-106965750D01*
X132405000Y-106965750D01*
X132405000Y-109556310D01*
X132501673Y-109789699D01*
X132680302Y-109968327D01*
X132913691Y-110065000D01*
X135504250Y-110065000D01*
X135663000Y-109906250D01*
X135663000Y-106807000D01*
X135917000Y-106807000D01*
X135917000Y-109906250D01*
X136075750Y-110065000D01*
X138666309Y-110065000D01*
X138899698Y-109968327D01*
X139078327Y-109789699D01*
X139175000Y-109556310D01*
X139175000Y-106965750D01*
X139016250Y-106807000D01*
X135917000Y-106807000D01*
X135663000Y-106807000D01*
X132563750Y-106807000D01*
X132405000Y-106965750D01*
X130250000Y-106965750D01*
X130250000Y-103803690D01*
X132405000Y-103803690D01*
X132405000Y-106394250D01*
X132563750Y-106553000D01*
X135663000Y-106553000D01*
X135663000Y-103453750D01*
X135917000Y-103453750D01*
X135917000Y-106553000D01*
X139016250Y-106553000D01*
X139175000Y-106394250D01*
X139175000Y-104680000D01*
X145942560Y-104680000D01*
X145942560Y-108680000D01*
X145986838Y-108915317D01*
X146125910Y-109131441D01*
X146338110Y-109276431D01*
X146590000Y-109327440D01*
X147828000Y-109327440D01*
X147828000Y-109868917D01*
X147761460Y-109935341D01*
X147612270Y-110294630D01*
X147611931Y-110683663D01*
X147760493Y-111043212D01*
X148035341Y-111318540D01*
X148394630Y-111467730D01*
X148783663Y-111468069D01*
X149143212Y-111319507D01*
X149418540Y-111044659D01*
X149567730Y-110685370D01*
X149568069Y-110296337D01*
X149419507Y-109936788D01*
X149352000Y-109869163D01*
X149352000Y-109327440D01*
X150590000Y-109327440D01*
X150825317Y-109283162D01*
X151041441Y-109144090D01*
X151186431Y-108931890D01*
X151237440Y-108680000D01*
X151237440Y-106965750D01*
X158005000Y-106965750D01*
X158005000Y-109556310D01*
X158101673Y-109789699D01*
X158280302Y-109968327D01*
X158513691Y-110065000D01*
X161104250Y-110065000D01*
X161263000Y-109906250D01*
X161263000Y-106807000D01*
X161517000Y-106807000D01*
X161517000Y-109906250D01*
X161675750Y-110065000D01*
X164266309Y-110065000D01*
X164499698Y-109968327D01*
X164678327Y-109789699D01*
X164775000Y-109556310D01*
X164775000Y-106965750D01*
X164616250Y-106807000D01*
X161517000Y-106807000D01*
X161263000Y-106807000D01*
X158163750Y-106807000D01*
X158005000Y-106965750D01*
X151237440Y-106965750D01*
X151237440Y-104680000D01*
X151193162Y-104444683D01*
X151054090Y-104228559D01*
X150841890Y-104083569D01*
X150590000Y-104032560D01*
X146590000Y-104032560D01*
X146354683Y-104076838D01*
X146138559Y-104215910D01*
X145993569Y-104428110D01*
X145942560Y-104680000D01*
X139175000Y-104680000D01*
X139175000Y-103803690D01*
X158005000Y-103803690D01*
X158005000Y-106394250D01*
X158163750Y-106553000D01*
X161263000Y-106553000D01*
X161263000Y-103453750D01*
X161517000Y-103453750D01*
X161517000Y-106553000D01*
X164616250Y-106553000D01*
X164775000Y-106394250D01*
X164775000Y-103803690D01*
X164678327Y-103570301D01*
X164499698Y-103391673D01*
X164266309Y-103295000D01*
X161675750Y-103295000D01*
X161517000Y-103453750D01*
X161263000Y-103453750D01*
X161104250Y-103295000D01*
X158513691Y-103295000D01*
X158280302Y-103391673D01*
X158101673Y-103570301D01*
X158005000Y-103803690D01*
X139175000Y-103803690D01*
X139078327Y-103570301D01*
X138899698Y-103391673D01*
X138666309Y-103295000D01*
X136075750Y-103295000D01*
X135917000Y-103453750D01*
X135663000Y-103453750D01*
X135504250Y-103295000D01*
X132913691Y-103295000D01*
X132680302Y-103391673D01*
X132501673Y-103570301D01*
X132405000Y-103803690D01*
X130250000Y-103803690D01*
X130250000Y-89610000D01*
X166930000Y-89610000D01*
X166930000Y-121845000D01*
M02*
