G04 #@! TF.FileFunction,Legend,Top*
%FSLAX46Y46*%
G04 Gerber Fmt 4.6, Leading zero omitted, Abs format (unit mm)*
G04 Created by KiCad (PCBNEW 4.0.4-stable) date 01/29/17 13:46:40*
%MOMM*%
%LPD*%
G01*
G04 APERTURE LIST*
%ADD10C,0.100000*%
%ADD11C,0.300000*%
%ADD12C,0.120000*%
%ADD13C,0.150000*%
%ADD14R,2.000000X2.400000*%
%ADD15R,1.600000X1.600000*%
%ADD16R,1.700000X1.900000*%
%ADD17R,1.950000X1.000000*%
G04 APERTURE END LIST*
D10*
D11*
X134505858Y-95801571D02*
X134505858Y-94301571D01*
X135005858Y-95373000D01*
X135505858Y-94301571D01*
X135505858Y-95801571D01*
X136220144Y-95801571D02*
X136220144Y-94801571D01*
X136220144Y-94301571D02*
X136148715Y-94373000D01*
X136220144Y-94444429D01*
X136291572Y-94373000D01*
X136220144Y-94301571D01*
X136220144Y-94444429D01*
X136934430Y-95801571D02*
X136934430Y-94801571D01*
X136934430Y-95087286D02*
X137005858Y-94944429D01*
X137077287Y-94873000D01*
X137220144Y-94801571D01*
X137363001Y-94801571D01*
X138505858Y-95801571D02*
X138505858Y-95015857D01*
X138434429Y-94873000D01*
X138291572Y-94801571D01*
X138005858Y-94801571D01*
X137863001Y-94873000D01*
X138505858Y-95730143D02*
X138363001Y-95801571D01*
X138005858Y-95801571D01*
X137863001Y-95730143D01*
X137791572Y-95587286D01*
X137791572Y-95444429D01*
X137863001Y-95301571D01*
X138005858Y-95230143D01*
X138363001Y-95230143D01*
X138505858Y-95158714D01*
X139863001Y-95730143D02*
X139720144Y-95801571D01*
X139434430Y-95801571D01*
X139291572Y-95730143D01*
X139220144Y-95658714D01*
X139148715Y-95515857D01*
X139148715Y-95087286D01*
X139220144Y-94944429D01*
X139291572Y-94873000D01*
X139434430Y-94801571D01*
X139720144Y-94801571D01*
X139863001Y-94873000D01*
X140720144Y-95801571D02*
X140577286Y-95730143D01*
X140505858Y-95587286D01*
X140505858Y-94301571D01*
X141863000Y-95730143D02*
X141720143Y-95801571D01*
X141434429Y-95801571D01*
X141291572Y-95730143D01*
X141220143Y-95587286D01*
X141220143Y-95015857D01*
X141291572Y-94873000D01*
X141434429Y-94801571D01*
X141720143Y-94801571D01*
X141863000Y-94873000D01*
X141934429Y-95015857D01*
X141934429Y-95158714D01*
X141220143Y-95301571D01*
X144220143Y-95015857D02*
X144434429Y-95087286D01*
X144505857Y-95158714D01*
X144577286Y-95301571D01*
X144577286Y-95515857D01*
X144505857Y-95658714D01*
X144434429Y-95730143D01*
X144291571Y-95801571D01*
X143720143Y-95801571D01*
X143720143Y-94301571D01*
X144220143Y-94301571D01*
X144363000Y-94373000D01*
X144434429Y-94444429D01*
X144505857Y-94587286D01*
X144505857Y-94730143D01*
X144434429Y-94873000D01*
X144363000Y-94944429D01*
X144220143Y-95015857D01*
X143720143Y-95015857D01*
X145434429Y-95801571D02*
X145291571Y-95730143D01*
X145220143Y-95587286D01*
X145220143Y-94301571D01*
X146005857Y-95801571D02*
X146005857Y-94801571D01*
X146005857Y-94301571D02*
X145934428Y-94373000D01*
X146005857Y-94444429D01*
X146077285Y-94373000D01*
X146005857Y-94301571D01*
X146005857Y-94444429D01*
X146720143Y-94801571D02*
X146720143Y-95801571D01*
X146720143Y-94944429D02*
X146791571Y-94873000D01*
X146934429Y-94801571D01*
X147148714Y-94801571D01*
X147291571Y-94873000D01*
X147363000Y-95015857D01*
X147363000Y-95801571D01*
X148077286Y-95801571D02*
X148077286Y-94301571D01*
X148220143Y-95230143D02*
X148648714Y-95801571D01*
X148648714Y-94801571D02*
X148077286Y-95373000D01*
X149148715Y-94801571D02*
X149505858Y-95801571D01*
X149863000Y-94801571D02*
X149505858Y-95801571D01*
X149363000Y-96158714D01*
X149291572Y-96230143D01*
X149148715Y-96301571D01*
D12*
X157235000Y-114030000D02*
X157235000Y-112030000D01*
X155185000Y-112030000D02*
X155185000Y-114030000D01*
X139635000Y-112925000D02*
X141035000Y-112925000D01*
X141035000Y-112925000D02*
X141035000Y-110125000D01*
X139635000Y-112925000D02*
X139635000Y-110125000D01*
D13*
X155335000Y-97755000D02*
X155335000Y-96555000D01*
X157085000Y-96555000D02*
X157085000Y-97755000D01*
X155335000Y-104740000D02*
X155335000Y-103540000D01*
X157085000Y-103540000D02*
X157085000Y-104740000D01*
X139460000Y-104105000D02*
X139460000Y-102905000D01*
X141210000Y-102905000D02*
X141210000Y-104105000D01*
X146515000Y-100930000D02*
X146515000Y-100980000D01*
X150665000Y-100930000D02*
X150665000Y-101075000D01*
X150665000Y-106080000D02*
X150665000Y-105935000D01*
X146515000Y-106080000D02*
X146515000Y-105935000D01*
X146515000Y-100930000D02*
X150665000Y-100930000D01*
X146515000Y-106080000D02*
X150665000Y-106080000D01*
X146515000Y-100980000D02*
X145115000Y-100980000D01*
X158583334Y-113768143D02*
X158535715Y-113815762D01*
X158392858Y-113863381D01*
X158297620Y-113863381D01*
X158154762Y-113815762D01*
X158059524Y-113720524D01*
X158011905Y-113625286D01*
X157964286Y-113434810D01*
X157964286Y-113291952D01*
X158011905Y-113101476D01*
X158059524Y-113006238D01*
X158154762Y-112911000D01*
X158297620Y-112863381D01*
X158392858Y-112863381D01*
X158535715Y-112911000D01*
X158583334Y-112958619D01*
X159535715Y-113863381D02*
X158964286Y-113863381D01*
X159250000Y-113863381D02*
X159250000Y-112863381D01*
X159154762Y-113006238D01*
X159059524Y-113101476D01*
X158964286Y-113149095D01*
X137564905Y-111704381D02*
X137564905Y-110704381D01*
X137803000Y-110704381D01*
X137945858Y-110752000D01*
X138041096Y-110847238D01*
X138088715Y-110942476D01*
X138136334Y-111132952D01*
X138136334Y-111275810D01*
X138088715Y-111466286D01*
X138041096Y-111561524D01*
X137945858Y-111656762D01*
X137803000Y-111704381D01*
X137564905Y-111704381D01*
X139088715Y-111704381D02*
X138517286Y-111704381D01*
X138803000Y-111704381D02*
X138803000Y-110704381D01*
X138707762Y-110847238D01*
X138612524Y-110942476D01*
X138517286Y-110990095D01*
X158837334Y-97226381D02*
X158504000Y-96750190D01*
X158265905Y-97226381D02*
X158265905Y-96226381D01*
X158646858Y-96226381D01*
X158742096Y-96274000D01*
X158789715Y-96321619D01*
X158837334Y-96416857D01*
X158837334Y-96559714D01*
X158789715Y-96654952D01*
X158742096Y-96702571D01*
X158646858Y-96750190D01*
X158265905Y-96750190D01*
X159789715Y-97226381D02*
X159218286Y-97226381D01*
X159504000Y-97226381D02*
X159504000Y-96226381D01*
X159408762Y-96369238D01*
X159313524Y-96464476D01*
X159218286Y-96512095D01*
X158456334Y-104846381D02*
X158123000Y-104370190D01*
X157884905Y-104846381D02*
X157884905Y-103846381D01*
X158265858Y-103846381D01*
X158361096Y-103894000D01*
X158408715Y-103941619D01*
X158456334Y-104036857D01*
X158456334Y-104179714D01*
X158408715Y-104274952D01*
X158361096Y-104322571D01*
X158265858Y-104370190D01*
X157884905Y-104370190D01*
X158837286Y-103941619D02*
X158884905Y-103894000D01*
X158980143Y-103846381D01*
X159218239Y-103846381D01*
X159313477Y-103894000D01*
X159361096Y-103941619D01*
X159408715Y-104036857D01*
X159408715Y-104132095D01*
X159361096Y-104274952D01*
X158789667Y-104846381D01*
X159408715Y-104846381D01*
X142708334Y-103576381D02*
X142375000Y-103100190D01*
X142136905Y-103576381D02*
X142136905Y-102576381D01*
X142517858Y-102576381D01*
X142613096Y-102624000D01*
X142660715Y-102671619D01*
X142708334Y-102766857D01*
X142708334Y-102909714D01*
X142660715Y-103004952D01*
X142613096Y-103052571D01*
X142517858Y-103100190D01*
X142136905Y-103100190D01*
X143041667Y-102576381D02*
X143660715Y-102576381D01*
X143327381Y-102957333D01*
X143470239Y-102957333D01*
X143565477Y-103004952D01*
X143613096Y-103052571D01*
X143660715Y-103147810D01*
X143660715Y-103385905D01*
X143613096Y-103481143D01*
X143565477Y-103528762D01*
X143470239Y-103576381D01*
X143184524Y-103576381D01*
X143089286Y-103528762D01*
X143041667Y-103481143D01*
X147828095Y-99457381D02*
X147828095Y-100266905D01*
X147875714Y-100362143D01*
X147923333Y-100409762D01*
X148018571Y-100457381D01*
X148209048Y-100457381D01*
X148304286Y-100409762D01*
X148351905Y-100362143D01*
X148399524Y-100266905D01*
X148399524Y-99457381D01*
X149399524Y-100457381D02*
X148828095Y-100457381D01*
X149113809Y-100457381D02*
X149113809Y-99457381D01*
X149018571Y-99600238D01*
X148923333Y-99695476D01*
X148828095Y-99743095D01*
%LPC*%
D14*
X156210000Y-111030000D03*
X156210000Y-115030000D03*
D15*
X140335000Y-110025000D03*
X140335000Y-112225000D03*
D16*
X156210000Y-95805000D03*
X156210000Y-98505000D03*
X156210000Y-102790000D03*
X156210000Y-105490000D03*
X140335000Y-102155000D03*
X140335000Y-104855000D03*
D17*
X145890000Y-101600000D03*
X145890000Y-102870000D03*
X145890000Y-104140000D03*
X145890000Y-105410000D03*
X151290000Y-105410000D03*
X151290000Y-104140000D03*
X151290000Y-102870000D03*
X151290000Y-101600000D03*
M02*
